<?xml version="1.0" encoding="UTF-8" standalone="no"?>
<svg
   xmlns:dc="http://purl.org/dc/elements/1.1/"
   xmlns:cc="http://creativecommons.org/ns#"
   xmlns:rdf="http://www.w3.org/1999/02/22-rdf-syntax-ns#"
   xmlns:svg="http://www.w3.org/2000/svg"
   xmlns="http://www.w3.org/2000/svg"
   version="1.1"
   id="svg4189"
   viewBox="0 0 8.1999998 3.5"
   height="3.5in"
   width="8.1999998in">
  <defs
     id="defs4191" />
  <metadata
     id="metadata4195">
    <rdf:RDF>
      <cc:Work
         rdf:about="">
        <dc:format>image/svg+xml</dc:format>
        <dc:type
           rdf:resource="http://purl.org/dc/dcmitype/StillImage" />
        <dc:title></dc:title>
      </cc:Work>
    </rdf:RDF>
  </metadata>
  <g
     transform="translate(0,-5)"
     id="layer1">
    <path
       id="path4147"
       d="m 0.31600982,8.3483046 c -0.019896,-0.010806 -0.050511,-0.042707 -0.068033,-0.07089 -0.028547,-0.045914 -0.031772,-0.066804 -0.031025,-0.2009153 9.298e-4,-0.167012 0.015403,-0.2317073 0.1766738,-0.7897943 l 0.088792,-0.3072677 -0.00389,-0.6692654 c -0.0037,-0.6378276 -0.00516,-0.6718186 -0.0311,-0.7236217 -0.036134,-0.072175 -0.090205,-0.092799 -0.1324735,-0.050531 -0.026064,0.026064 -0.03043,0.04748 -0.034538,0.1694115 -0.00619,0.1836117 -0.030295,0.2428249 -0.089602,0.2200667 -0.042749,-0.016404 -0.052357,-0.067876 -0.047087,-0.2522521 0.00472,-0.1649808 0.00859,-0.1884986 0.041353,-0.2513293 0.058108,-0.1114227 0.151857,-0.1526319 0.2458074,-0.1080497 0.059309,0.028144 0.1035379,0.093066 0.1537238,0.225647 0.038203,0.1009233 0.038415,0.1032832 0.045845,0.509426 0.0065,0.355464 0.010206,0.4085584 0.028745,0.4121119 0.01537,0.00295 0.063926,-0.078264 0.1748154,-0.2923765 C 1.1420711,5.5738628 1.3463521,5.3364103 1.6354189,5.2371395 c 0.1933002,-0.066383 0.4924518,-0.031056 0.6308397,0.074496 0.1274988,0.097247 0.1527545,0.1739415 0.1442746,0.4381241 -0.00559,0.1742061 -0.010313,0.2029082 -0.05522,0.3356966 -0.076552,0.2263608 -0.1405793,0.34199 -0.3651696,0.6594749 -0.058967,0.083357 -0.107213,0.1569976 -0.107213,0.163646 0,0.00665 0.024492,0.044683 0.054427,0.084523 0.029935,0.039839 0.054427,0.084874 0.054427,0.100077 0,0.038096 -0.089104,0.1192985 -0.1309079,0.1192985 -0.018548,0 -0.051683,-0.00929 -0.073633,-0.020638 -0.095185,-0.049222 -0.1430721,-0.042998 -0.3565308,0.046343 -0.2345201,0.098156 -0.2899971,0.1049993 -0.351621,0.043375 -0.03447,-0.034469 -0.039773,-0.049912 -0.039773,-0.115805 0,-0.09936 0.038123,-0.1792206 0.1238183,-0.2593786 C 1.2711097,6.8053753 1.3154445,6.7913163 1.5270585,6.7909681 1.7417067,6.7906147 1.7596684,6.7834681 1.8513324,6.6618756 1.9280704,6.5600854 2.0377037,6.3353325 2.0669682,6.219813 2.0976172,6.09883 2.1087732,5.8608013 2.0878772,5.7736976 2.0692922,5.6962286 2.0003742,5.6057701 1.9325902,5.5698754 1.8762502,5.5400414 1.7215984,5.5414654 1.6312077,5.5726454 1.464038,5.6303184 1.2649301,5.7995993 1.1252079,6.0028439 0.97369112,6.2232449 0.76722002,6.6270621 0.68907872,6.8558275 l -0.049782,0.1457405 -0.00904,0.3605765 c -0.0095,0.3791227 -0.023195,0.4908358 -0.08726,0.7119134 -0.041326,0.1426057 -0.09053,0.2443204 -0.1323649,0.2736227 -0.036905,0.02585 -0.048042,0.025922 -0.094627,6.189e-4 z M 6.5257736,7.7488696 C 6.4461986,7.7092156 6.382405,7.6367725 6.3525522,7.5521606 c -0.023038,-0.065297 -0.028072,-0.3132327 -0.00715,-0.35232 0.015086,-0.028188 0.091902,-0.063788 0.106408,-0.049313 0.00537,0.00536 0.013424,0.081192 0.017892,0.1685131 0.011362,0.2220698 0.053675,0.3016353 0.1604108,0.3016353 0.050319,0 0.1224348,-0.069419 0.1678258,-0.1615484 0.024249,-0.049217 0.032032,-0.091616 0.035653,-0.1942207 0.00294,-0.083259 -0.00122,-0.142193 -0.011369,-0.1611583 C 6.7976248,7.0577866 6.7109636,7.0269846 6.4973885,6.9882905 6.2004097,6.9344865 6.1448537,6.8928255 6.1591937,6.7346805 6.1723997,6.5890466 6.2761629,6.4549422 6.4631808,6.3418052 c 0.1786719,-0.1080878 0.3992433,-0.14329 0.4772741,-0.07617 0.034563,0.02973 0.038177,0.041228 0.038177,0.1214622 0,0.1426601 -0.068711,0.2077821 -0.1532709,0.1452644 C 6.778371,6.4976208 6.751539,6.5051628 6.631059,6.5869788 6.4373505,6.7185241 6.4746038,6.7790474 6.7950545,6.8534121 6.9785338,6.8959911 7.05458,6.9283681 7.1011767,6.9837451 7.1968037,7.0973914 7.0879757,7.4244435 6.8795736,7.6497101 6.7534571,7.7860323 6.6554658,7.8134965 6.5257768,7.7488701 Z M 4.5933808,7.5227076 c -0.00898,-0.00898 -0.016328,-0.028374 -0.016328,-0.043096 0,-0.039791 0.151988,-0.3201281 0.2694235,-0.4969439 L 4.9494042,6.8276953 4.9121852,6.7649603 c -0.075549,-0.1273427 -0.1606196,-0.31285 -0.1677103,-0.365716 -0.00944,-0.070362 0.027458,-0.112022 0.099209,-0.112022 0.064288,0 0.1093953,0.033844 0.2112646,0.1585114 l 0.083862,0.1026298 0.1250288,-0.1254406 c 0.068766,-0.068993 0.1490216,-0.1399641 0.1783459,-0.1577145 0.06611,-0.040017 0.1352773,-0.042738 0.1548886,-0.00609 0.02445,0.045686 0.016497,0.1493751 -0.015875,0.2069739 -0.034985,0.062248 -0.078349,0.078455 -0.1261361,0.047144 -0.018391,-0.01205 -0.042269,-0.02191 -0.05306,-0.02191 -0.021167,0 -0.1099816,0.1002784 -0.1556989,0.1757968 -0.034185,0.056469 -0.033165,0.059483 0.1022282,0.3021102 C 5.4513576,7.1534965 5.4934716,7.2481722 5.4813418,7.2677991 5.4687688,7.2881421 5.4235398,7.2825861 5.369099,7.2540111 5.341333,7.2394371 5.2552543,7.1694461 5.1778122,7.0984741 5.1003702,7.0275021 5.0293562,6.9723704 5.0200038,6.9759596 c -0.026372,0.01012 -0.062111,0.064534 -0.1776802,0.270532 -0.096762,0.1724751 -0.1871095,0.2925435 -0.2201286,0.2925435 -0.00687,0 -0.019834,-0.00735 -0.028814,-0.016328 z M 3.536143,7.3870772 C 3.3492497,7.3167632 3.2449892,7.1417153 3.261612,6.9261534 3.28151,6.6681246 3.4602633,6.3876255 3.6730237,6.2805693 c 0.072967,-0.036716 0.093598,-0.040685 0.2121882,-0.04082 0.1266138,-1.355e-4 0.1332541,0.00137 0.18369,0.041963 0.043341,0.034881 0.1002772,0.1123642 0.1168798,0.1590582 0.00209,0.00587 0.039699,0.019024 0.083579,0.029224 0.050151,0.011658 0.093047,0.0318 0.1154988,0.054232 0.035447,0.035417 0.035775,0.037659 0.043458,0.2973355 0.00426,0.1439075 0.01307,0.2738955 0.019583,0.2888629 0.00651,0.014967 0.032451,0.059594 0.057642,0.09917 0.051983,0.08167 0.050116,0.1065762 -0.0119,0.1587594 -0.044799,0.037696 -0.091173,0.04314 -0.1628802,0.019123 -0.073929,-0.024761 -0.098885,-0.057468 -0.1488791,-0.1951191 -0.025876,-0.071245 -0.052077,-0.1295406 -0.058225,-0.1295459 -0.00615,-5.4e-6 -0.067525,0.057355 -0.136395,0.1274668 -0.078792,0.080214 -0.1522734,0.1411872 -0.1981924,0.164456 -0.08212,0.041613 -0.1912079,0.055563 -0.252928,0.032342 z M 3.8055503,7.1084092 C 3.9179207,7.0505372 4.0298392,6.9231815 4.1027131,6.7702593 4.1597421,6.6505873 4.1555541,6.6142059 4.0770081,6.5469596 4.0414611,6.5165256 3.9870171,6.4781436 3.9560233,6.4616656 3.9045883,6.4343196 3.8944953,6.4332326 3.8403668,6.4492066 c -0.073595,0.021719 -0.1850307,0.1318794 -0.23763,0.2349088 -0.02778,0.054415 -0.038609,0.098831 -0.043344,0.1777827 -0.0074,0.1234358 0.00767,0.1698093 0.074148,0.2281805 0.053236,0.046742 0.1059394,0.052358 0.1720107,0.018331 z M 2.76424,7.3626102 C 2.719852,7.3276952 2.708846,7.2980102 2.6530833,7.0628023 2.5933813,6.8109776 2.5609903,6.7257043 2.4944598,6.6451924 c -0.029509,-0.03571 -0.053653,-0.07306 -0.053653,-0.083 0,-0.031848 0.1362042,-0.1639844 0.1786402,-0.1733051 0.062349,-0.013694 0.097035,0.01971 0.1545887,0.1488738 0.028634,0.064263 0.056718,0.1168413 0.062407,0.1168413 0.00569,0 0.02309,-0.020623 0.038667,-0.045828 0.022243,-0.03599 0.028323,-0.068214 0.028323,-0.1501104 0,-0.1753904 0.053267,-0.250514 0.1668296,-0.235282 0.084801,0.011374 0.099927,0.038565 0.1087545,0.1955009 0.005,0.08886 0.017113,0.1578601 0.036139,0.2058328 0.030887,0.077878 0.024696,0.1116169 -0.025401,0.1384277 -0.043469,0.023264 -0.086088,0.015751 -0.1495757,-0.026367 -0.072509,-0.048103 -0.086921,-0.040917 -0.1162939,0.057993 -0.027172,0.091499 -0.025801,0.15788 0.00672,0.3253791 0.031172,0.1605485 0.034157,0.2296554 0.010927,0.2528859 -0.026669,0.026669 -0.1384937,0.020094 -0.1772917,-0.010424 z m 3.051019,0.00292 C 5.78259,7.3492102 5.756954,7.3203762 5.733619,7.2737062 5.70077,7.2080072 5.699476,7.1951672 5.695907,6.899523 5.692527,6.6194085 5.689807,6.5889661 5.663972,6.5415491 5.639589,6.4968031 5.63801,6.4842281 5.652406,6.4494731 5.689073,6.3609521 5.9504557,6.1758956 6.0303236,6.1819118 c 0.027515,0.00207 0.029819,0.00922 0.029391,0.091198 -2.567e-4,0.048922 -0.012827,0.1379335 -0.027937,0.1978028 -0.034804,0.1379019 -0.051482,0.4943447 -0.02665,0.5695847 0.00907,0.027489 0.037907,0.072683 0.064076,0.1004309 0.039467,0.041847 0.04619,0.057406 0.039423,0.09124 C 6.0926496,7.3120552 5.9855132,7.3890732 5.890096,7.3892653 5.875129,7.3892875 5.841452,7.3786143 5.815259,7.3655293 Z M 7.5485121,6.0029732 C 7.3612923,5.9547662 7.2412388,5.8089975 7.2398788,5.6282314 7.2383488,5.425467 7.3487046,5.2814923 7.5439863,5.2314636 7.8542738,5.1519716 8.1279491,5.4453803 8.0250893,5.7472567 7.9956353,5.8337007 7.9005266,5.9363681 7.8163598,5.9725756 7.7406198,6.0051576 7.6131703,6.0196216 7.5485121,6.0029736 Z M 7.7819778,5.9012443 c 0.1189178,-0.055375 0.183134,-0.1562057 0.183134,-0.2875514 0,-0.1719145 -0.1164288,-0.2976635 -0.2924189,-0.3158271 -0.1543432,-0.01593 -0.300026,0.08006 -0.3423226,0.2255551 -0.078369,0.2695781 0.1942565,0.4976616 0.4516075,0.3778234 z m -0.2930992,-0.2924389 0,-0.2021843 0.1054515,-0.00191 c 0.1874217,-0.0034 0.2483217,0.025353 0.2483217,0.1172318 0,0.063768 -0.020018,0.094812 -0.06792,0.1053333 -0.022514,0.00494 -0.040917,0.013096 -0.040898,0.018114 1.11e-5,0.00502 0.021265,0.044331 0.047213,0.087362 l 0.047178,0.078238 -0.044518,0 c -0.040895,0 -0.048335,-0.00719 -0.091435,-0.088329 -0.043341,-0.081596 -0.050376,-0.088337 -0.0923,-0.088443 l -0.045383,-1.133e-4 0.00456,0.088472 0.00456,0.088472 -0.037418,-2.22e-5 -0.037418,-2.23e-5 0,-0.2021841 z M 7.7451517,5.5715594 C 7.8171887,5.5211024 7.7490817,5.4544015 7.6317486,5.46049 l -0.068033,0.00353 -0.00415,0.064632 -0.00415,0.064631 0.079358,0 c 0.050652,0 0.090577,-0.00786 0.110373,-0.021724 z m -1.859907,0.2321817 c -0.094504,-0.07952 -0.080059,-0.1969997 0.030822,-0.2506764 0.078804,-0.038148 0.1217888,-0.03522 0.1745125,0.011889 0.037716,0.033699 0.044436,0.048967 0.044436,0.1009537 0,0.046554 -0.00816,0.069985 -0.034017,0.097656 -0.075099,0.080373 -0.1511534,0.094536 -0.2157543,0.040178 z"
       style="fill:#ba282e;fill-opacity:1" />
  </g>
</svg>
